<svg xmlns="http://www.w3.org/2000/svg" viewBox="0 0 64 64" role="img" aria-label="Quantum Medical Supply">
  <defs>
    <linearGradient id="g" x1="0" y1="0" x2="1" y2="1">
      <stop offset="0" stop-color="#1b7fa8"/>
      <stop offset="1" stop-color="#1f9d8b"/>
    </linearGradient>
  </defs>
  <rect width="64" height="64" rx="15" fill="url(#g)"/>
  <path d="M37 13H27a2 2 0 0 0-2 2v10H15a2 2 0 0 0-2 2v10a2 2 0 0 0 2 2h10v10a2 2 0 0 0 2 2h10a2 2 0 0 0 2-2V39h10a2 2 0 0 0 2-2V27a2 2 0 0 0-2-2H39V15a2 2 0 0 0-2-2Z" fill="#fff"/>
  <circle cx="32" cy="32" r="29" fill="none" stroke="#fff" stroke-opacity=".35" stroke-width="2"/>
</svg>
